<?xml version="1.0" encoding="UTF-8" standalone="no"?>
<svg
   viewBox="0 0 512 512"
   version="1.1"
   id="svg27"
   sodipodi:docname="menu.svg"
   inkscape:version="1.2.2 (b0a8486541, 2022-12-01, custom)"
   xmlns:inkscape="http://www.inkscape.org/namespaces/inkscape"
   xmlns:sodipodi="http://sodipodi.sourceforge.net/DTD/sodipodi-0.dtd"
   xmlns="http://www.w3.org/2000/svg"
   xmlns:svg="http://www.w3.org/2000/svg">
  <defs
     id="defs31" />
  <sodipodi:namedview
     id="namedview29"
     pagecolor="#ffffff"
     bordercolor="#000000"
     borderopacity="0.25"
     inkscape:showpageshadow="2"
     inkscape:pageopacity="0.0"
     inkscape:pagecheckerboard="0"
     inkscape:deskcolor="#d1d1d1"
     showgrid="false"
     inkscape:zoom="2.0058594"
     inkscape:cx="255.75073"
     inkscape:cy="256"
     inkscape:window-width="2486"
     inkscape:window-height="1376"
     inkscape:window-x="74"
     inkscape:window-y="27"
     inkscape:window-maximized="1"
     inkscape:current-layer="svg27" />
  <title
     id="title18" />
  <g
     data-name="1"
     id="_1">
    <path
       d="M441.13,166.52h-372a15,15,0,1,1,0-30h372a15,15,0,0,1,0,30Z"
       id="path20" />
    <path
       d="M441.13,279.72h-372a15,15,0,1,1,0-30h372a15,15,0,0,1,0,30Z"
       id="path22" />
    <path
       d="M441.13,392.92h-372a15,15,0,1,1,0-30h372a15,15,0,0,1,0,30Z"
       id="path24" />
  </g>
  <path
     style="fill:#ffffff;stroke-width:0.498539"
     d="m 63.281402,138.15093 c -7.446077,3.09698 -11.103058,12.6408 -7.277507,19.81304 2.875748,5.67141 9.249995,8.99928 15.543317,8.12726 113.654918,0.39763 227.311658,0.27452 340.966878,0.04 11.08474,-0.17746 22.20718,0.15247 33.26683,-0.56644 7.96803,-2.83437 12.37157,-12.82515 8.44985,-20.47614 -2.07594,-4.32445 -6.60803,-7.67123 -11.27848,-8.23954 -125.63194,0 -251.26388,0 -376.895815,0 -0.925024,0.43395 -1.850048,0.8679 -2.775073,1.30186 z"
     id="path206" />
  <path
     style="fill:#ffffff;stroke-width:0.498539"
     d="m 63.429406,251.20448 c -7.660759,3.38271 -12.005088,13.87504 -6.723015,21.05438 3.031003,4.874 8.769732,7.81926 14.516574,6.98935 113.625935,0.43524 227.253795,0.26514 340.880225,0.097 11.35177,-0.26632 22.78901,0.36004 34.08376,-0.78434 5.95505,-2.46421 10.42611,-8.73858 9.23759,-15.36028 -0.12492,-6.52514 -5.87605,-12.03104 -11.97371,-13.18305 -125.79812,0 -251.59624,0 -377.394355,0 -0.875689,0.39565 -1.751379,0.7913 -2.627069,1.18695 z"
     id="path208" />
  <path
     style="fill:#ffffff;stroke-width:0.498539"
     d="m 63.429406,364.37293 c -7.376281,3.35831 -11.844515,13.29316 -7.087634,20.50633 2.939527,5.16903 8.876696,8.44871 14.852929,7.52901 124.416779,0.53664 248.835599,0.14814 373.253209,0.19154 6.39308,-2.28659 12.02928,-8.31947 11.12074,-15.51218 0.053,-7.44819 -7.09368,-14.21717 -14.56209,-13.48958 -50.6087,-0.68202 -101.2273,-0.28122 -151.84006,-0.41041 -74.37001,-0.003 -148.74002,-8.5e-4 -223.110025,-0.002 -0.875689,0.39565 -1.751379,0.7913 -2.627069,1.18695 z"
     id="path210" />
</svg>
