<?xml version="1.0" encoding="UTF-8" standalone="no"?>
<!-- Uploaded to: SVG Repo, www.svgrepo.com, Generator: SVG Repo Mixer Tools -->

<svg
   fill="#000000"
   version="1.1"
   id="Capa_1"
   width="800px"
   height="800px"
   viewBox="0 0 24.75 24.75"
   xml:space="preserve"
   sodipodi:docname="menu.svg"
   inkscape:version="1.2.2 (b0a8486541, 2022-12-01, custom)"
   xmlns:inkscape="http://www.inkscape.org/namespaces/inkscape"
   xmlns:sodipodi="http://sodipodi.sourceforge.net/DTD/sodipodi-0.dtd"
   xmlns="http://www.w3.org/2000/svg"
   xmlns:svg="http://www.w3.org/2000/svg"><defs
   id="defs25" /><sodipodi:namedview
   id="namedview23"
   pagecolor="#ffffff"
   bordercolor="#000000"
   borderopacity="0.25"
   inkscape:showpageshadow="2"
   inkscape:pageopacity="0.0"
   inkscape:pagecheckerboard="0"
   inkscape:deskcolor="#d1d1d1"
   showgrid="false"
   inkscape:zoom="1.28375"
   inkscape:cx="399.61052"
   inkscape:cy="400"
   inkscape:window-width="2486"
   inkscape:window-height="1376"
   inkscape:window-x="74"
   inkscape:window-y="27"
   inkscape:window-maximized="1"
   inkscape:current-layer="Capa_1" />
<g
   id="g20">
	<path
   d="M0,3.875c0-1.104,0.896-2,2-2h20.75c1.104,0,2,0.896,2,2s-0.896,2-2,2H2C0.896,5.875,0,4.979,0,3.875z M22.75,10.375H2   c-1.104,0-2,0.896-2,2c0,1.104,0.896,2,2,2h20.75c1.104,0,2-0.896,2-2C24.75,11.271,23.855,10.375,22.75,10.375z M22.75,18.875H2   c-1.104,0-2,0.896-2,2s0.896,2,2,2h20.75c1.104,0,2-0.896,2-2S23.855,18.875,22.75,18.875z"
   id="path18" />
</g>
<path
   style="fill:#ffffff;stroke-width:0.778968"
   d="M 51.801363,188.17731 C 30.835567,183.5174 13.109418,168.8186 5.3809114,149.68474 1.6914174,140.55048 0.79758536,135.71865 0.81902956,125.02434 0.84326364,112.93868 2.4567951,106.21144 7.8126317,95.86618 16.33714,79.400358 31.063414,67.742751 49.46446,62.893778 l 6.621226,-1.7448 H 400 743.91431 l 6.62123,1.7448 c 22.84016,6.018751 40.43466,23.252512 46.89613,45.934662 2.27162,7.97411 2.47657,23.74505 0.40669,31.29152 -3.23754,11.80346 -7.67992,20.02229 -15.27797,28.26582 -8.85822,9.61078 -19.297,15.84564 -31.86927,19.03485 l -7.36606,1.86856 -343.61968,-0.0798 c -267.66609,-0.0622 -344.5667,-0.2903 -347.904017,-1.03206 z"
   id="path200"
   transform="scale(0.0309375)" /><path
   style="fill:#ffffff;stroke-width:0.778968"
   d="M 54.174981,463.38153 C 37.937126,460.67769 21.569912,450.27451 12.17698,436.68715 3.9429829,424.77626 0.8292613,414.7096 0.8292613,400 c 0,-14.65961 3.1185097,-24.78318 11.2639377,-36.56596 8.714108,-12.6054 20.680331,-20.99812 36.470256,-25.57906 l 5.964296,-1.73035 H 400 745.47225 l 5.9643,1.73035 c 15.78992,4.58094 27.75613,12.97366 36.47029,25.57906 14.66266,21.2104 15.43742,48.48909 1.98979,70.06492 -8.8356,14.17609 -20.99909,23.33143 -38.04083,28.6329 l -5.60458,1.74351 -343.91432,0.10672 c -202.95799,0.063 -345.65523,-0.18316 -348.161919,-0.60056 z"
   id="path202"
   transform="scale(0.0309375)" /><path
   style="fill:#ffffff;stroke-width:0.778968"
   d="M 56.085686,738.38001 C 30.594653,734.68489 9.7179202,716.26923 2.5683108,691.17156 0.29671587,683.19745 0.09176654,667.42651 2.1616658,659.88004 5.3991987,648.07658 9.8415486,639.85775 17.439595,631.61422 c 8.350592,-9.06 19.597567,-15.94581 31.245897,-19.12988 4.81587,-1.31642 21.983056,-1.38405 351.314508,-1.38405 329.33145,0 346.49864,0.0676 351.31451,1.38405 19.2555,5.26348 36.09044,19.9705 43.30461,37.83091 3.68943,9.13427 4.58329,13.9661 4.56187,24.66041 -0.0164,8.07392 -0.37079,11.35683 -1.74932,16.1959 -6.40421,22.48124 -23.65842,39.52196 -46.50665,45.93133 l -6.23174,1.74813 -341.96689,0.10325 c -190.36596,0.0575 -344.038891,-0.19711 -346.640704,-0.57426 z"
   id="path204"
   transform="scale(0.0309375)" /></svg>
