<?xml version="1.0" encoding="UTF-8" standalone="no"?>
<!-- Uploaded to: SVG Repo, www.svgrepo.com, Generator: SVG Repo Mixer Tools -->

<svg
   fill="#000000"
   width="800px"
   height="800px"
   viewBox="0 0 24 24"
   id="sun"
   class="icon glyph"
   version="1.1"
   sodipodi:docname="sun.svg"
   inkscape:version="1.2.2 (b0a8486541, 2022-12-01, custom)"
   xmlns:inkscape="http://www.inkscape.org/namespaces/inkscape"
   xmlns:sodipodi="http://sodipodi.sourceforge.net/DTD/sodipodi-0.dtd"
   xmlns="http://www.w3.org/2000/svg"
   xmlns:svg="http://www.w3.org/2000/svg">
  <defs
     id="defs23" />
  <sodipodi:namedview
     id="namedview21"
     pagecolor="#ffffff"
     bordercolor="#000000"
     borderopacity="0.25"
     inkscape:showpageshadow="2"
     inkscape:pageopacity="0.0"
     inkscape:pagecheckerboard="0"
     inkscape:deskcolor="#d1d1d1"
     showgrid="false"
     inkscape:zoom="1.28375"
     inkscape:cx="399.61052"
     inkscape:cy="400"
     inkscape:window-width="2486"
     inkscape:window-height="1376"
     inkscape:window-x="74"
     inkscape:window-y="27"
     inkscape:window-maximized="1"
     inkscape:current-layer="sun" />
  <path
     d="M16,12a4,4,0,1,1-4-4A4,4,0,0,1,16,12Zm-3,9V20a1,1,0,0,0-2,0v1a1,1,0,0,0,2,0Zm6.07-1.93a1,1,0,0,0,0-1.41L18.36,17A1,1,0,0,0,17,18.36l.71.71a1,1,0,0,0,1.41,0Zm-12.73,0,.71-.71A1,1,0,0,0,5.64,17l-.71.71a1,1,0,0,0,0,1.41,1,1,0,0,0,1.41,0ZM22,12a1,1,0,0,0-1-1H20a1,1,0,0,0,0,2h1A1,1,0,0,0,22,12ZM5,12a1,1,0,0,0-1-1H3a1,1,0,0,0,0,2H4A1,1,0,0,0,5,12ZM18.36,7.05l.71-.71a1,1,0,1,0-1.41-1.41L17,5.64a1,1,0,0,0,0,1.41,1,1,0,0,0,.71.29A1,1,0,0,0,18.36,7.05Zm-11.31,0a1,1,0,0,0,0-1.41l-.71-.71A1,1,0,0,0,4.93,6.34l.71.71a1,1,0,0,0,.7.29A1,1,0,0,0,7.05,7.05Zm6-3V3a1,1,0,0,0-2,0V4a1,1,0,0,0,2,0Z"
     id="path18" />
  <path
     style="fill:#ffffff;stroke-width:0.778968"
     d="m 381.64615,531.6159 c -57.42888,-8.38578 -102.37623,-51.99551 -112.62868,-109.27689 -2.26684,-12.66506 -2.27071,-31.99227 -0.009,-44.62576 9.8115,-54.80356 50.71177,-96.67238 105.675,-108.17745 10.08458,-2.11094 29.1196,-2.89275 39.88383,-1.63812 59.02162,6.87926 105.98829,51.16658 116.40394,109.76331 2.26155,12.72309 2.27063,32.06601 0.0209,44.62576 -10.32781,57.65918 -55.36018,101.13096 -113.29295,109.3668 -9.68271,1.37652 -26.48858,1.35897 -36.05316,-0.0376 z"
     id="path198"
     transform="scale(0.03)" />
  <path
     style="fill:#ffffff;stroke-width:0.778968"
     d="m 660.3126,432.27264 c -16.69625,-3.28569 -28.86586,-20.63231 -26.04166,-37.11989 2.39166,-13.96245 12.98446,-24.88199 26.65187,-27.47396 5.67412,-1.07607 40.19724,-1.00636 45.36796,0.0916 10.0556,2.13525 18.71353,8.95111 23.36037,18.39019 2.44696,4.97049 2.57866,5.67727 2.57866,13.8394 0,8.16213 -0.1317,8.86891 -2.57866,13.8394 -4.64684,9.43908 -13.30477,16.25494 -23.36037,18.39019 -4.81033,1.02145 -40.83503,1.05518 -45.97817,0.0431 z"
     id="path200"
     transform="scale(0.03)" />
  <path
     style="fill:#ffffff;stroke-width:0.778968"
     d="m 584.61538,243.70018 c -16.94572,-2.72679 -29.56251,-20.24892 -26.68329,-37.05765 1.55402,-9.07236 4.2969,-13.21637 19.7354,-29.81682 7.76965,-8.35443 16.05343,-16.50525 18.40838,-18.11292 6.04573,-4.12728 11.3857,-5.50893 19.74671,-5.10918 5.92545,0.2833 7.58589,0.70333 12.6246,3.1936 16.20077,8.00686 22.82688,26.79545 15.13592,42.91856 -2.35773,4.94269 -4.43061,7.31193 -19.16122,21.90059 -9.08462,8.99708 -17.81399,17.14564 -19.3986,18.10792 -5.97841,3.63045 -13.47651,5.09124 -20.4079,3.9759 z"
     id="path202"
     transform="scale(0.03)" />
  <path
     style="fill:#ffffff;stroke-width:0.778968"
     d="m 391.81067,164.56256 c -9.44106,-3.37001 -15.95118,-9.18812 -20.11484,-17.97669 l -2.46506,-5.2032 -0.24757,-22.79323 c -0.21142,-19.464832 -0.0582,-23.444615 1.04921,-27.254 3.62507,-12.469783 13.8066,-21.489283 26.76658,-23.711673 14.00309,-2.401265 28.26362,5.279439 34.58671,18.628362 l 2.4994,5.276595 v 25.316456 25.31646 l -2.62319,5.22678 c -3.22509,6.42606 -9.6322,12.7294 -16.07204,15.81171 -6.10434,2.92173 -17.19943,3.5683 -23.3792,1.36243 z"
     id="path204"
     transform="scale(0.03)" />
  <path
     style="fill:#ffffff;stroke-width:0.778968"
     d="m 206.037,243.72724 c -8.83512,-1.44976 -12.3572,-3.98555 -29.29578,-21.0921 -18.75049,-18.93642 -19.32444,-19.92475 -19.36499,-33.34595 -0.0233,-7.6989 0.12641,-8.4882 2.54918,-13.44235 6.50148,-13.29445 21.19599,-21.12033 34.91186,-18.59308 9.28748,1.71128 12.51341,3.9997 28.87292,20.48189 13.00628,13.10383 15.28176,15.76682 17.52678,20.51167 2.38514,5.04099 2.57997,6.04104 2.57997,13.24246 0,7.1485 -0.20526,8.22302 -2.49382,13.05435 -6.61789,13.9709 -20.62932,21.58814 -35.28612,19.18311 z"
     id="path206"
     transform="scale(0.03)" />
  <path
     style="fill:#ffffff;stroke-width:0.778968"
     d="M 92.697176,432.00699 C 82.933095,429.58365 74.874758,423.0328 70.348862,413.8394 67.901896,408.86891 67.770204,408.16213 67.770204,400 c 0,-8.21747 0.1189,-8.84293 2.663757,-14.01226 4.606517,-9.35717 13.190702,-16.07593 23.275267,-18.21733 5.170722,-1.09798 39.693842,-1.16769 45.367962,-0.0916 13.6674,2.59197 24.2602,13.51151 26.65187,27.47396 2.87639,16.79224 -9.409,33.9629 -26.59487,37.1703 -6.04031,1.12731 -41.596491,0.8853 -46.437014,-0.31606 z"
     id="path208"
     transform="scale(0.03)" />
  <path
     style="fill:#ffffff;stroke-width:0.778968"
     d="m 180.03329,645.67688 c -8.55796,-2.00907 -17.76379,-9.70007 -22.04185,-18.41483 -2.02421,-4.1235 -2.19787,-5.18501 -2.19787,-13.43537 0,-13.14375 0.79905,-14.52925 18.99641,-32.93871 15.75888,-15.94255 18.60889,-17.93835 27.31662,-19.12921 10.19862,-1.39475 19.74683,1.69465 27.19524,8.79923 7.40586,7.06399 10.69454,15.54738 10.06416,25.96123 -0.59336,9.8023 -2.01944,12.11409 -16.21989,26.29373 -6.83942,6.8294 -12.4353,12.79378 -12.4353,13.25419 0,2.52314 -9.09056,8.13499 -15.61229,9.6379 -4.16584,0.96 -10.9097,0.94739 -15.06523,-0.0281 z"
     id="path210"
     transform="scale(0.03)" />
  <path
     style="fill:#ffffff;stroke-width:0.778968"
     d="m 392.59981,731.90962 c -9.77417,-2.42584 -17.87379,-9.01754 -22.3659,-18.20201 l -2.56108,-5.23633 V 683.5039 658.53653 l 2.92828,-5.92497 c 3.42242,-6.92478 9.05968,-12.55528 15.96352,-15.94436 4.1235,-2.02422 5.18501,-2.19787 13.43537,-2.19787 8.25036,0 9.31187,0.17365 13.43537,2.19787 6.90465,3.38947 12.54116,9.01954 15.96352,15.94525 l 2.92828,5.92587 v 24.96648 24.96648 l -2.56108,5.23633 c -4.61266,9.43094 -13.31218,16.28719 -23.37795,18.42461 -5.11015,1.08511 -8.75646,1.02625 -13.78833,-0.2226 z"
     id="path212"
     transform="scale(0.03)" />
  <path
     style="fill:#ffffff;stroke-width:0.778968"
     d="m 605.84278,643.78178 c -7.58342,-2.04204 -10.46372,-4.18152 -24.88548,-18.48488 -15.6809,-15.55216 -17.14281,-17.74972 -17.9104,-26.92317 -1.13537,-13.56885 6.42306,-26.28461 19.2181,-32.33111 9.07794,-4.28993 22.68569,-3.68232 29.45344,1.31516 1.41107,1.04197 8.14699,7.21197 14.96872,13.71111 15.33918,14.61384 17.27035,17.80716 17.7772,29.39599 0.26971,6.16675 0.0443,8.07134 -1.43802,12.15325 -0.96681,2.66227 -2.84949,6.37441 -4.18372,8.24921 -1.33423,1.87479 -2.95939,4.291 -3.61147,5.36934 -2.51122,4.15282 -14.15868,8.80768 -21.76287,8.69745 -1.94504,-0.0282 -5.37652,-0.54676 -7.6255,-1.15235 z"
     id="path214"
     transform="scale(0.03)" />
</svg>
